<svg width="69" height="18" viewBox="0 0 69 18" fill="none" xmlns="http://www.w3.org/2000/svg">
<g clip-path="url(#clip0_5_6082)">
<path d="M5.96638 11.355C5.96638 11.817 5.86004 12.2167 5.64738 12.554C5.44204 12.8913 5.13404 13.1517 4.72338 13.335C4.32004 13.5183 3.82138 13.61 3.22738 13.61C2.93404 13.61 2.66271 13.5917 2.41338 13.555C2.16404 13.5257 1.92938 13.478 1.70938 13.412C1.49671 13.346 1.29138 13.2653 1.09338 13.17V11.85C1.42338 11.9967 1.77904 12.1323 2.16038 12.257C2.54904 12.3743 2.92671 12.433 3.29338 12.433C3.57204 12.433 3.79938 12.3927 3.97538 12.312C4.15138 12.224 4.27971 12.1067 4.36038 11.96C4.44838 11.806 4.49238 11.63 4.49238 11.432C4.49238 11.212 4.43738 11.025 4.32738 10.871C4.22471 10.717 4.06338 10.574 3.84337 10.442C3.62337 10.31 3.33738 10.1743 2.98538 10.035C2.73604 9.925 2.49771 9.80767 2.27038 9.683C2.05038 9.551 1.85604 9.39333 1.68738 9.21C1.52604 9.02667 1.39771 8.81033 1.30238 8.561C1.21438 8.31167 1.17038 8.01833 1.17038 7.681C1.17038 7.23367 1.27671 6.84867 1.48938 6.526C1.70204 6.20333 1.99904 5.95767 2.38038 5.789C2.76171 5.62033 3.20538 5.536 3.71138 5.536C4.13671 5.536 4.52538 5.58 4.87738 5.668C5.23671 5.756 5.57404 5.88067 5.88938 6.042L5.42738 7.175C5.12671 7.03567 4.82971 6.92567 4.53638 6.845C4.25038 6.76433 3.96071 6.724 3.66738 6.724C3.44004 6.724 3.24938 6.76433 3.09538 6.845C2.94138 6.91833 2.82404 7.02467 2.74338 7.164C2.67004 7.30333 2.63338 7.46467 2.63338 7.648C2.63338 7.86067 2.68471 8.04033 2.78738 8.187C2.89004 8.33367 3.05138 8.473 3.27138 8.605C3.49138 8.72967 3.77738 8.87633 4.12938 9.045C4.51804 9.221 4.84804 9.408 5.11938 9.606C5.39804 9.804 5.60704 10.0423 5.74638 10.321C5.89304 10.5997 5.96638 10.9443 5.96638 11.355ZM12.6369 13.5H8.40193V5.646H12.6369V6.823H9.87593V8.825H12.4609V10.002H9.87593V12.312H12.6369V13.5ZM19.803 13.5L19.198 11.421H16.514L15.909 13.5H14.325L16.965 5.613H18.736L21.387 13.5H19.803ZM18.219 8.187C18.1897 8.06967 18.1493 7.93033 18.098 7.769C18.054 7.60033 18.01 7.428 17.966 7.252C17.9293 7.076 17.8927 6.911 17.856 6.757C17.8267 6.933 17.79 7.109 17.746 7.285C17.702 7.45367 17.658 7.615 17.614 7.769C17.5773 7.923 17.5407 8.06233 17.504 8.187L16.888 10.211H18.846L18.219 8.187ZM25.5956 5.646C26.2483 5.646 26.7873 5.73033 27.2126 5.899C27.638 6.06767 27.9533 6.32433 28.1586 6.669C28.364 7.00633 28.4666 7.43533 28.4666 7.956C28.4666 8.33733 28.4043 8.66367 28.2796 8.935C28.155 9.20633 27.9863 9.43367 27.7736 9.617C27.5683 9.793 27.3446 9.936 27.1026 10.046L29.2146 13.5H27.5426L25.8376 10.398H24.8806V13.5H23.4066V5.646H25.5956ZM25.5296 6.823H24.8806V9.243H25.5516C25.867 9.243 26.1273 9.19533 26.3326 9.1C26.5453 9.00467 26.7029 8.86533 26.8056 8.682C26.9156 8.49867 26.9706 8.27133 26.9706 8C26.9706 7.714 26.9193 7.48667 26.8166 7.318C26.714 7.142 26.5563 7.01733 26.3436 6.944C26.1309 6.86333 25.8596 6.823 25.5296 6.823ZM34.4317 6.724C34.1237 6.724 33.845 6.79 33.5957 6.922C33.3464 7.054 33.1337 7.24467 32.9577 7.494C32.789 7.74333 32.6607 8.044 32.5727 8.396C32.4847 8.748 32.4407 9.144 32.4407 9.584C32.4407 10.178 32.514 10.6877 32.6607 11.113C32.8074 11.531 33.031 11.8537 33.3317 12.081C33.6324 12.3083 34.01 12.422 34.4647 12.422C34.78 12.422 35.088 12.389 35.3887 12.323C35.6894 12.2497 35.9937 12.1543 36.3017 12.037V13.236C36.001 13.368 35.6894 13.4633 35.3667 13.522C35.0514 13.5807 34.6957 13.61 34.2997 13.61C33.5297 13.61 32.8954 13.445 32.3967 13.115C31.898 12.7777 31.524 12.3083 31.2747 11.707C31.0327 11.0983 30.9117 10.387 30.9117 9.573C30.9117 8.979 30.9887 8.43633 31.1427 7.945C31.2967 7.45367 31.524 7.02833 31.8247 6.669C32.1254 6.30967 32.4957 6.031 32.9357 5.833C33.3757 5.635 33.878 5.536 34.4427 5.536C34.8167 5.536 35.1944 5.58367 35.5757 5.679C35.9644 5.767 36.3054 5.89167 36.5987 6.053L36.1037 7.208C35.847 7.08333 35.5794 6.97333 35.3007 6.878C35.0294 6.77533 34.7397 6.724 34.4317 6.724ZM44.9434 13.5H43.4584V10.013H40.4224V13.5H38.9484V5.646H40.4224V8.814H43.4584V5.646H44.9434V13.5Z" fill="black"/>
</g>
<g clip-path="url(#clip1_5_6082)">
<path d="M61.4773 12.265C63.8897 12.265 65.8453 10.329 65.8453 7.94078C65.8453 5.55256 63.8897 3.61653 61.4773 3.61653C59.065 3.61653 57.1094 5.55256 57.1094 7.94078C57.1094 10.329 59.065 12.265 61.4773 12.265Z" stroke="black" stroke-width="0.999762"/>
<path d="M64.4355 10.7603L68.2575 14.5293" stroke="black" stroke-width="0.999762"/>
</g>
<defs>
<clipPath id="clip0_5_6082">
<rect width="56" height="15" fill="white" transform="translate(0.59375 1.5)"/>
</clipPath>
<clipPath id="clip1_5_6082">
<rect width="12" height="11.7656" fill="white" transform="translate(56.6094 3.11719)"/>
</clipPath>
</defs>
</svg>
