<svg width="14" height="10" viewBox="0 0 14 10" fill="none" xmlns="http://www.w3.org/2000/svg">
<path d="M3.6655 9.29688H0.1425V8.49087L1.1825 8.16587V1.15887L0.1425 0.820875V0.0148744H3.6655V0.820875L2.6255 1.15887V8.16587L3.6655 8.49087V9.29688ZM13.2049 9.29688H11.4369L7.15986 1.79587H7.10786C7.11653 1.96921 7.12519 2.15554 7.13386 2.35487C7.15119 2.55421 7.16419 2.76654 7.17286 2.99187C7.18153 3.20854 7.19019 3.43387 7.19886 3.66787C7.20753 3.89321 7.21619 4.12287 7.22486 4.35687V9.29688H5.91186V0.0148744H7.66686L11.9309 7.47687H11.9829C11.9742 7.34687 11.9655 7.18654 11.9569 6.99587C11.9482 6.79654 11.9395 6.58421 11.9309 6.35887C11.9222 6.13354 11.9135 5.90387 11.9049 5.66987C11.8962 5.43587 11.8919 5.21487 11.8919 5.00687V0.0148744H13.2049V9.29688Z" fill="black"/>
</svg>
