<svg width="12" height="10" viewBox="0 0 12 10" fill="none" xmlns="http://www.w3.org/2000/svg">
<path d="M2.78063 0.0148744C3.91596 0.0148744 4.74363 0.261875 5.26363 0.755875C5.79229 1.24121 6.05663 1.92154 6.05663 2.79688C6.05663 3.18687 5.99596 3.55954 5.87463 3.91487C5.76196 4.27021 5.57129 4.59087 5.30263 4.87687C5.04263 5.15421 4.69163 5.37521 4.24963 5.53987C3.80763 5.69587 3.26596 5.77387 2.62463 5.77387H1.71463V9.29688H0.271625V0.0148744H2.78063ZM2.70263 1.19787H1.71463V4.59087H2.46863C2.93663 4.59087 3.32663 4.53454 3.63863 4.42187C3.95063 4.30054 4.18463 4.11421 4.34063 3.86287C4.50529 3.60287 4.58763 3.26487 4.58763 2.84887C4.58763 2.29421 4.43596 1.88254 4.13263 1.61387C3.82929 1.33654 3.35263 1.19787 2.70263 1.19787ZM11.2716 9.29688H7.74855V8.49087L8.78855 8.16587V1.15887L7.74855 0.820875V0.0148744H11.2716V0.820875L10.2316 1.15887V8.16587L11.2716 8.49087V9.29688Z" fill="black"/>
</svg>
